<mxfile host="app.diagrams.net" modified="2023-11-16T17:45:04.719Z" agent="Mozilla/5.0 (Windows NT 10.0; Win64; x64) AppleWebKit/537.36 (KHTML, like Gecko) Chrome/119.0.0.0 Safari/537.36" etag="FuPYHMg9TM5EAqMsAPMo" version="22.1.2" type="github">
  <diagram name="Page-1" id="3CD9Jlh-L_q3NiRnQQOs">
    <mxGraphModel dx="2284" dy="746" grid="1" gridSize="10" guides="1" tooltips="1" connect="1" arrows="1" fold="1" page="1" pageScale="1" pageWidth="850" pageHeight="1100" math="0" shadow="0">
      <root>
        <mxCell id="0" />
        <mxCell id="1" parent="0" />
        <mxCell id="jVrqQYl2YKboR_f-lFe1-74" value="" style="rounded=0;whiteSpace=wrap;html=1;" vertex="1" parent="1">
          <mxGeometry x="700" y="380" width="150" height="190" as="geometry" />
        </mxCell>
        <mxCell id="jVrqQYl2YKboR_f-lFe1-4" style="edgeStyle=orthogonalEdgeStyle;rounded=0;orthogonalLoop=1;jettySize=auto;html=1;exitX=0.5;exitY=0.5;exitDx=0;exitDy=0;exitPerimeter=0;entryX=0;entryY=0.5;entryDx=0;entryDy=0;" edge="1" parent="1" source="jVrqQYl2YKboR_f-lFe1-1" target="jVrqQYl2YKboR_f-lFe1-7">
          <mxGeometry relative="1" as="geometry">
            <mxPoint x="220" y="110" as="targetPoint" />
          </mxGeometry>
        </mxCell>
        <mxCell id="jVrqQYl2YKboR_f-lFe1-8" style="edgeStyle=orthogonalEdgeStyle;rounded=0;orthogonalLoop=1;jettySize=auto;html=1;exitX=0.5;exitY=0.5;exitDx=0;exitDy=0;exitPerimeter=0;entryX=0;entryY=0.5;entryDx=0;entryDy=0;" edge="1" parent="1" source="jVrqQYl2YKboR_f-lFe1-1" target="jVrqQYl2YKboR_f-lFe1-5">
          <mxGeometry relative="1" as="geometry" />
        </mxCell>
        <mxCell id="jVrqQYl2YKboR_f-lFe1-9" style="edgeStyle=orthogonalEdgeStyle;rounded=0;orthogonalLoop=1;jettySize=auto;html=1;exitX=0.5;exitY=0.5;exitDx=0;exitDy=0;exitPerimeter=0;entryX=0;entryY=0.5;entryDx=0;entryDy=0;" edge="1" parent="1" source="jVrqQYl2YKboR_f-lFe1-1" target="jVrqQYl2YKboR_f-lFe1-6">
          <mxGeometry relative="1" as="geometry">
            <Array as="points">
              <mxPoint x="145" y="135" />
              <mxPoint x="145" y="225" />
            </Array>
          </mxGeometry>
        </mxCell>
        <mxCell id="jVrqQYl2YKboR_f-lFe1-1" value="Actor" style="shape=umlActor;verticalLabelPosition=bottom;verticalAlign=top;html=1;outlineConnect=0;" vertex="1" parent="1">
          <mxGeometry x="40" y="105" width="30" height="60" as="geometry" />
        </mxCell>
        <mxCell id="jVrqQYl2YKboR_f-lFe1-17" style="edgeStyle=orthogonalEdgeStyle;rounded=0;orthogonalLoop=1;jettySize=auto;html=1;exitX=1;exitY=0.5;exitDx=0;exitDy=0;entryX=0;entryY=0.5;entryDx=0;entryDy=0;" edge="1" parent="1" source="jVrqQYl2YKboR_f-lFe1-5">
          <mxGeometry relative="1" as="geometry">
            <mxPoint x="390" y="135" as="targetPoint" />
          </mxGeometry>
        </mxCell>
        <mxCell id="jVrqQYl2YKboR_f-lFe1-5" value="Click the Cat" style="rounded=0;whiteSpace=wrap;html=1;fillColor=#dae8fc;strokeColor=#6c8ebf;" vertex="1" parent="1">
          <mxGeometry x="220" y="120" width="120" height="30" as="geometry" />
        </mxCell>
        <mxCell id="jVrqQYl2YKboR_f-lFe1-21" style="edgeStyle=orthogonalEdgeStyle;rounded=0;orthogonalLoop=1;jettySize=auto;html=1;exitX=1;exitY=0.5;exitDx=0;exitDy=0;entryX=0;entryY=0.5;entryDx=0;entryDy=0;" edge="1" parent="1" source="jVrqQYl2YKboR_f-lFe1-6" target="jVrqQYl2YKboR_f-lFe1-20">
          <mxGeometry relative="1" as="geometry" />
        </mxCell>
        <mxCell id="jVrqQYl2YKboR_f-lFe1-6" value="Click view the Pool" style="rounded=0;whiteSpace=wrap;html=1;fillColor=#d5e8d4;strokeColor=#82b366;" vertex="1" parent="1">
          <mxGeometry x="220" y="210" width="120" height="30" as="geometry" />
        </mxCell>
        <mxCell id="jVrqQYl2YKboR_f-lFe1-13" style="edgeStyle=orthogonalEdgeStyle;rounded=0;orthogonalLoop=1;jettySize=auto;html=1;exitX=1;exitY=0.5;exitDx=0;exitDy=0;entryX=0;entryY=0.5;entryDx=0;entryDy=0;" edge="1" parent="1" source="jVrqQYl2YKboR_f-lFe1-7">
          <mxGeometry relative="1" as="geometry">
            <mxPoint x="390" y="50" as="targetPoint" />
          </mxGeometry>
        </mxCell>
        <mxCell id="jVrqQYl2YKboR_f-lFe1-7" value="Select a Category" style="rounded=0;whiteSpace=wrap;html=1;fillColor=#ffe6cc;strokeColor=#d79b00;" vertex="1" parent="1">
          <mxGeometry x="220" y="35" width="120" height="30" as="geometry" />
        </mxCell>
        <mxCell id="jVrqQYl2YKboR_f-lFe1-14" value="Update the Pool HTML" style="rounded=0;whiteSpace=wrap;html=1;fillColor=#ffe6cc;strokeColor=#d79b00;" vertex="1" parent="1">
          <mxGeometry x="390" y="35" width="110" height="30" as="geometry" />
        </mxCell>
        <mxCell id="jVrqQYl2YKboR_f-lFe1-18" value="Update the Display with Random Tea" style="rounded=0;whiteSpace=wrap;html=1;fillColor=#dae8fc;strokeColor=#6c8ebf;" vertex="1" parent="1">
          <mxGeometry x="390" y="120" width="120" height="30" as="geometry" />
        </mxCell>
        <mxCell id="jVrqQYl2YKboR_f-lFe1-20" value="Expands the pool" style="rounded=0;whiteSpace=wrap;html=1;fillColor=#d5e8d4;strokeColor=#82b366;" vertex="1" parent="1">
          <mxGeometry x="390" y="210" width="120" height="30" as="geometry" />
        </mxCell>
        <mxCell id="jVrqQYl2YKboR_f-lFe1-24" style="edgeStyle=orthogonalEdgeStyle;rounded=0;orthogonalLoop=1;jettySize=auto;html=1;exitX=1;exitY=0.5;exitDx=0;exitDy=0;entryX=0;entryY=0.5;entryDx=0;entryDy=0;" edge="1" parent="1" source="jVrqQYl2YKboR_f-lFe1-22" target="jVrqQYl2YKboR_f-lFe1-23">
          <mxGeometry relative="1" as="geometry" />
        </mxCell>
        <mxCell id="jVrqQYl2YKboR_f-lFe1-22" value="Selects a Category" style="rounded=0;whiteSpace=wrap;html=1;fillColor=#ffe6cc;strokeColor=#d79b00;" vertex="1" parent="1">
          <mxGeometry y="290" width="100" height="50" as="geometry" />
        </mxCell>
        <mxCell id="jVrqQYl2YKboR_f-lFe1-32" style="edgeStyle=orthogonalEdgeStyle;rounded=0;orthogonalLoop=1;jettySize=auto;html=1;exitX=1;exitY=0.5;exitDx=0;exitDy=0;entryX=0;entryY=0.5;entryDx=0;entryDy=0;" edge="1" parent="1" source="jVrqQYl2YKboR_f-lFe1-23" target="jVrqQYl2YKboR_f-lFe1-30">
          <mxGeometry relative="1" as="geometry" />
        </mxCell>
        <mxCell id="jVrqQYl2YKboR_f-lFe1-23" value="On hover Highlight Text Green" style="rounded=0;whiteSpace=wrap;html=1;" vertex="1" parent="1">
          <mxGeometry x="120" y="290" width="110" height="50" as="geometry" />
        </mxCell>
        <mxCell id="jVrqQYl2YKboR_f-lFe1-25" value="Selected Item has White Highlighted Text" style="rounded=0;whiteSpace=wrap;html=1;" vertex="1" parent="1">
          <mxGeometry x="350" y="290" width="150" height="50" as="geometry" />
        </mxCell>
        <mxCell id="jVrqQYl2YKboR_f-lFe1-33" style="edgeStyle=orthogonalEdgeStyle;rounded=0;orthogonalLoop=1;jettySize=auto;html=1;exitX=1;exitY=0.5;exitDx=0;exitDy=0;entryX=0;entryY=0.5;entryDx=0;entryDy=0;" edge="1" parent="1" source="jVrqQYl2YKboR_f-lFe1-30" target="jVrqQYl2YKboR_f-lFe1-25">
          <mxGeometry relative="1" as="geometry" />
        </mxCell>
        <mxCell id="jVrqQYl2YKboR_f-lFe1-30" value="OnSelect::Radio Button" style="rhombus;whiteSpace=wrap;html=1;" vertex="1" parent="1">
          <mxGeometry x="250" y="277.5" width="80" height="75" as="geometry" />
        </mxCell>
        <mxCell id="jVrqQYl2YKboR_f-lFe1-72" style="edgeStyle=orthogonalEdgeStyle;rounded=0;orthogonalLoop=1;jettySize=auto;html=1;exitX=0.5;exitY=1;exitDx=0;exitDy=0;entryX=0.5;entryY=0;entryDx=0;entryDy=0;" edge="1" parent="1" source="jVrqQYl2YKboR_f-lFe1-37" target="jVrqQYl2YKboR_f-lFe1-38">
          <mxGeometry relative="1" as="geometry" />
        </mxCell>
        <mxCell id="jVrqQYl2YKboR_f-lFe1-37" value="EventListener In Pool Catches event" style="rounded=0;whiteSpace=wrap;html=1;" vertex="1" parent="1">
          <mxGeometry x="710" y="420" width="130" height="60" as="geometry" />
        </mxCell>
        <mxCell id="jVrqQYl2YKboR_f-lFe1-38" value="Updates Pool HTML" style="whiteSpace=wrap;html=1;fillColor=#ffe6cc;strokeColor=#d79b00;" vertex="1" parent="1">
          <mxGeometry x="710" y="500" width="130" height="60" as="geometry" />
        </mxCell>
        <mxCell id="jVrqQYl2YKboR_f-lFe1-42" value="CSS" style="text;html=1;strokeColor=none;fillColor=none;align=center;verticalAlign=middle;whiteSpace=wrap;rounded=0;" vertex="1" parent="1">
          <mxGeometry x="145" y="250" width="60" height="30" as="geometry" />
        </mxCell>
        <mxCell id="jVrqQYl2YKboR_f-lFe1-43" value="Categories/tea-categories.html" style="text;html=1;strokeColor=none;fillColor=none;align=center;verticalAlign=middle;whiteSpace=wrap;rounded=0;" vertex="1" parent="1">
          <mxGeometry x="-40" y="270" width="180" height="20" as="geometry" />
        </mxCell>
        <mxCell id="jVrqQYl2YKboR_f-lFe1-47" value="JS" style="text;html=1;strokeColor=none;fillColor=none;align=center;verticalAlign=middle;whiteSpace=wrap;rounded=0;" vertex="1" parent="1">
          <mxGeometry x="260" y="250" width="60" height="30" as="geometry" />
        </mxCell>
        <mxCell id="jVrqQYl2YKboR_f-lFe1-48" value="CSS" style="text;html=1;strokeColor=none;fillColor=none;align=center;verticalAlign=middle;whiteSpace=wrap;rounded=0;" vertex="1" parent="1">
          <mxGeometry x="395" y="250" width="60" height="30" as="geometry" />
        </mxCell>
        <mxCell id="jVrqQYl2YKboR_f-lFe1-49" value="TeaPool/tea-pool.html&lt;br&gt;Script Tag" style="text;html=1;strokeColor=none;fillColor=none;align=center;verticalAlign=middle;whiteSpace=wrap;rounded=0;" vertex="1" parent="1">
          <mxGeometry x="710" y="390" width="130" height="30" as="geometry" />
        </mxCell>
        <mxCell id="jVrqQYl2YKboR_f-lFe1-55" style="edgeStyle=orthogonalEdgeStyle;rounded=0;orthogonalLoop=1;jettySize=auto;html=1;exitX=1;exitY=0.5;exitDx=0;exitDy=0;entryX=0;entryY=0.5;entryDx=0;entryDy=0;" edge="1" parent="1" source="jVrqQYl2YKboR_f-lFe1-50" target="jVrqQYl2YKboR_f-lFe1-51">
          <mxGeometry relative="1" as="geometry" />
        </mxCell>
        <mxCell id="jVrqQYl2YKboR_f-lFe1-50" value="Click the Cat" style="rounded=0;whiteSpace=wrap;html=1;fillColor=#dae8fc;strokeColor=#6c8ebf;" vertex="1" parent="1">
          <mxGeometry y="695" width="120" height="60" as="geometry" />
        </mxCell>
        <mxCell id="jVrqQYl2YKboR_f-lFe1-56" style="edgeStyle=orthogonalEdgeStyle;rounded=0;orthogonalLoop=1;jettySize=auto;html=1;exitX=1;exitY=0.5;exitDx=0;exitDy=0;entryX=0;entryY=0.5;entryDx=0;entryDy=0;" edge="1" parent="1" source="jVrqQYl2YKboR_f-lFe1-51" target="jVrqQYl2YKboR_f-lFe1-52">
          <mxGeometry relative="1" as="geometry" />
        </mxCell>
        <mxCell id="jVrqQYl2YKboR_f-lFe1-51" value="OnHover: Cat image changes to OnHover image" style="rounded=0;whiteSpace=wrap;html=1;" vertex="1" parent="1">
          <mxGeometry x="150" y="695" width="120" height="60" as="geometry" />
        </mxCell>
        <mxCell id="jVrqQYl2YKboR_f-lFe1-57" style="edgeStyle=orthogonalEdgeStyle;rounded=0;orthogonalLoop=1;jettySize=auto;html=1;exitX=1;exitY=0.5;exitDx=0;exitDy=0;entryX=0;entryY=0.5;entryDx=0;entryDy=0;dashed=1;" edge="1" parent="1" source="jVrqQYl2YKboR_f-lFe1-52" target="jVrqQYl2YKboR_f-lFe1-53">
          <mxGeometry relative="1" as="geometry" />
        </mxCell>
        <mxCell id="jVrqQYl2YKboR_f-lFe1-52" value="TramLite::Broadcast Event" style="rounded=0;whiteSpace=wrap;html=1;" vertex="1" parent="1">
          <mxGeometry x="305" y="695" width="120" height="60" as="geometry" />
        </mxCell>
        <mxCell id="jVrqQYl2YKboR_f-lFe1-53" value="Event Handler catches Event" style="rounded=0;whiteSpace=wrap;html=1;" vertex="1" parent="1">
          <mxGeometry x="460" y="695" width="120" height="60" as="geometry" />
        </mxCell>
        <mxCell id="jVrqQYl2YKboR_f-lFe1-61" value="" style="rounded=0;whiteSpace=wrap;html=1;align=center;" vertex="1" parent="1">
          <mxGeometry x="590" y="670" width="160" height="260" as="geometry" />
        </mxCell>
        <mxCell id="jVrqQYl2YKboR_f-lFe1-60" style="edgeStyle=orthogonalEdgeStyle;rounded=0;orthogonalLoop=1;jettySize=auto;html=1;exitX=1;exitY=0.5;exitDx=0;exitDy=0;entryX=0;entryY=0.5;entryDx=0;entryDy=0;" edge="1" parent="1" source="jVrqQYl2YKboR_f-lFe1-53" target="jVrqQYl2YKboR_f-lFe1-58">
          <mxGeometry relative="1" as="geometry" />
        </mxCell>
        <mxCell id="jVrqQYl2YKboR_f-lFe1-54" value="TeaResult/tea-result.html" style="text;html=1;strokeColor=none;fillColor=none;align=center;verticalAlign=middle;whiteSpace=wrap;rounded=0;" vertex="1" parent="1">
          <mxGeometry x="450" y="660" width="140" height="35" as="geometry" />
        </mxCell>
        <mxCell id="jVrqQYl2YKboR_f-lFe1-73" value="" style="rounded=0;whiteSpace=wrap;html=1;" vertex="1" parent="1">
          <mxGeometry x="510" y="255" width="170" height="245" as="geometry" />
        </mxCell>
        <mxCell id="jVrqQYl2YKboR_f-lFe1-65" style="edgeStyle=orthogonalEdgeStyle;rounded=0;orthogonalLoop=1;jettySize=auto;html=1;exitX=0.5;exitY=1;exitDx=0;exitDy=0;entryX=0.5;entryY=0;entryDx=0;entryDy=0;" edge="1" parent="1" source="jVrqQYl2YKboR_f-lFe1-58" target="jVrqQYl2YKboR_f-lFe1-64">
          <mxGeometry relative="1" as="geometry" />
        </mxCell>
        <mxCell id="jVrqQYl2YKboR_f-lFe1-58" value="Picks a Random tea From Tea Pool" style="rounded=0;whiteSpace=wrap;html=1;" vertex="1" parent="1">
          <mxGeometry x="610" y="695" width="120" height="60" as="geometry" />
        </mxCell>
        <mxCell id="jVrqQYl2YKboR_f-lFe1-59" value="Util/Randomizer.js" style="text;html=1;strokeColor=none;fillColor=none;align=center;verticalAlign=middle;whiteSpace=wrap;rounded=0;" vertex="1" parent="1">
          <mxGeometry x="620" y="670" width="100" height="25" as="geometry" />
        </mxCell>
        <mxCell id="jVrqQYl2YKboR_f-lFe1-67" style="edgeStyle=orthogonalEdgeStyle;rounded=0;orthogonalLoop=1;jettySize=auto;html=1;exitX=0.5;exitY=1;exitDx=0;exitDy=0;entryX=0.5;entryY=0;entryDx=0;entryDy=0;" edge="1" parent="1" source="jVrqQYl2YKboR_f-lFe1-64" target="jVrqQYl2YKboR_f-lFe1-66">
          <mxGeometry relative="1" as="geometry" />
        </mxCell>
        <mxCell id="jVrqQYl2YKboR_f-lFe1-64" value="Logs the Picked Tea Index and Title" style="rounded=0;whiteSpace=wrap;html=1;" vertex="1" parent="1">
          <mxGeometry x="610" y="780" width="120" height="60" as="geometry" />
        </mxCell>
        <mxCell id="jVrqQYl2YKboR_f-lFe1-66" value="Updates the current Title and Description" style="rounded=0;whiteSpace=wrap;html=1;fillColor=#dae8fc;strokeColor=#6c8ebf;" vertex="1" parent="1">
          <mxGeometry x="610" y="860" width="120" height="60" as="geometry" />
        </mxCell>
        <mxCell id="jVrqQYl2YKboR_f-lFe1-68" value="Cat/cat.html" style="text;html=1;align=center;verticalAlign=middle;resizable=0;points=[];autosize=1;strokeColor=none;fillColor=none;" vertex="1" parent="1">
          <mxGeometry x="15" y="670" width="90" height="30" as="geometry" />
        </mxCell>
        <mxCell id="jVrqQYl2YKboR_f-lFe1-34" style="edgeStyle=orthogonalEdgeStyle;rounded=0;orthogonalLoop=1;jettySize=auto;html=1;exitX=0.5;exitY=1;exitDx=0;exitDy=0;entryX=0.5;entryY=0;entryDx=0;entryDy=0;" edge="1" parent="1" source="jVrqQYl2YKboR_f-lFe1-27" target="jVrqQYl2YKboR_f-lFe1-29">
          <mxGeometry relative="1" as="geometry" />
        </mxCell>
        <mxCell id="jVrqQYl2YKboR_f-lFe1-27" value="Update the Selected Category in JS." style="rounded=0;whiteSpace=wrap;html=1;" vertex="1" parent="1">
          <mxGeometry x="530" y="290" width="130" height="50" as="geometry" />
        </mxCell>
        <mxCell id="jVrqQYl2YKboR_f-lFe1-39" style="edgeStyle=orthogonalEdgeStyle;rounded=0;orthogonalLoop=1;jettySize=auto;html=1;exitX=0.5;exitY=1;exitDx=0;exitDy=0;entryX=0.5;entryY=0;entryDx=0;entryDy=0;" edge="1" parent="1" source="jVrqQYl2YKboR_f-lFe1-29" target="jVrqQYl2YKboR_f-lFe1-36">
          <mxGeometry relative="1" as="geometry" />
        </mxCell>
        <mxCell id="jVrqQYl2YKboR_f-lFe1-77" style="edgeStyle=orthogonalEdgeStyle;rounded=0;orthogonalLoop=1;jettySize=auto;html=1;exitX=0;exitY=0.5;exitDx=0;exitDy=0;entryX=1;entryY=0.5;entryDx=0;entryDy=0;strokeColor=none;startArrow=classic;startFill=1;" edge="1" parent="1" source="jVrqQYl2YKboR_f-lFe1-29" target="jVrqQYl2YKboR_f-lFe1-75">
          <mxGeometry relative="1" as="geometry" />
        </mxCell>
        <mxCell id="jVrqQYl2YKboR_f-lFe1-29" value="&amp;nbsp;Update the Attribute" style="rounded=0;whiteSpace=wrap;html=1;" vertex="1" parent="1">
          <mxGeometry x="530" y="360" width="130" height="40" as="geometry" />
        </mxCell>
        <mxCell id="jVrqQYl2YKboR_f-lFe1-36" value="TramLite::Broadcast new Category Event" style="rounded=0;whiteSpace=wrap;html=1;" vertex="1" parent="1">
          <mxGeometry x="530" y="420" width="130" height="60" as="geometry" />
        </mxCell>
        <mxCell id="jVrqQYl2YKboR_f-lFe1-45" value="Script Tag" style="text;html=1;strokeColor=none;fillColor=none;align=center;verticalAlign=middle;whiteSpace=wrap;rounded=0;" vertex="1" parent="1">
          <mxGeometry x="565" y="260" width="60" height="30" as="geometry" />
        </mxCell>
        <mxCell id="jVrqQYl2YKboR_f-lFe1-40" style="edgeStyle=orthogonalEdgeStyle;rounded=0;orthogonalLoop=1;jettySize=auto;html=1;exitX=1;exitY=0.5;exitDx=0;exitDy=0;entryX=0;entryY=0.5;entryDx=0;entryDy=0;dashed=1;" edge="1" parent="1" source="jVrqQYl2YKboR_f-lFe1-36" target="jVrqQYl2YKboR_f-lFe1-37">
          <mxGeometry relative="1" as="geometry" />
        </mxCell>
        <mxCell id="jVrqQYl2YKboR_f-lFe1-28" style="edgeStyle=orthogonalEdgeStyle;rounded=0;orthogonalLoop=1;jettySize=auto;html=1;exitX=1;exitY=0.5;exitDx=0;exitDy=0;entryX=0;entryY=0.5;entryDx=0;entryDy=0;" edge="1" parent="1" source="jVrqQYl2YKboR_f-lFe1-25" target="jVrqQYl2YKboR_f-lFe1-27">
          <mxGeometry relative="1" as="geometry" />
        </mxCell>
        <mxCell id="jVrqQYl2YKboR_f-lFe1-78" style="edgeStyle=orthogonalEdgeStyle;rounded=0;orthogonalLoop=1;jettySize=auto;html=1;exitX=1;exitY=0.5;exitDx=0;exitDy=0;entryX=0;entryY=0.5;entryDx=0;entryDy=0;startArrow=classic;startFill=1;dashed=1;" edge="1" parent="1" source="jVrqQYl2YKboR_f-lFe1-75" target="jVrqQYl2YKboR_f-lFe1-29">
          <mxGeometry relative="1" as="geometry" />
        </mxCell>
        <mxCell id="jVrqQYl2YKboR_f-lFe1-79" value="Listening to the attribute" style="edgeLabel;html=1;align=center;verticalAlign=middle;resizable=0;points=[];" vertex="1" connectable="0" parent="jVrqQYl2YKboR_f-lFe1-78">
          <mxGeometry x="-0.2" y="4" relative="1" as="geometry">
            <mxPoint x="9" y="-26" as="offset" />
          </mxGeometry>
        </mxCell>
        <mxCell id="jVrqQYl2YKboR_f-lFe1-75" value="TramLite::Effect Update the Category" style="rounded=0;whiteSpace=wrap;html=1;" vertex="1" parent="1">
          <mxGeometry x="190" y="415" width="120" height="45" as="geometry" />
        </mxCell>
        <mxCell id="jVrqQYl2YKboR_f-lFe1-76" value="index.html" style="text;html=1;align=center;verticalAlign=middle;resizable=0;points=[];autosize=1;strokeColor=none;fillColor=none;" vertex="1" parent="1">
          <mxGeometry x="210" y="390" width="80" height="30" as="geometry" />
        </mxCell>
        <mxCell id="jVrqQYl2YKboR_f-lFe1-82" style="edgeStyle=orthogonalEdgeStyle;rounded=0;orthogonalLoop=1;jettySize=auto;html=1;exitX=1;exitY=0.5;exitDx=0;exitDy=0;entryX=0;entryY=0.5;entryDx=0;entryDy=0;" edge="1" parent="1" source="jVrqQYl2YKboR_f-lFe1-80" target="jVrqQYl2YKboR_f-lFe1-81">
          <mxGeometry relative="1" as="geometry" />
        </mxCell>
        <mxCell id="jVrqQYl2YKboR_f-lFe1-80" value="Click the Pool Button" style="rounded=0;whiteSpace=wrap;html=1;fillColor=#d5e8d4;strokeColor=#82b366;" vertex="1" parent="1">
          <mxGeometry y="980" width="120" height="60" as="geometry" />
        </mxCell>
        <mxCell id="jVrqQYl2YKboR_f-lFe1-81" value="Change the display to block instead of none" style="rounded=0;whiteSpace=wrap;html=1;fillColor=#d5e8d4;strokeColor=#82b366;" vertex="1" parent="1">
          <mxGeometry x="170" y="980" width="120" height="60" as="geometry" />
        </mxCell>
        <mxCell id="jVrqQYl2YKboR_f-lFe1-83" value="TeaPool/tea-pool.html" style="text;html=1;align=center;verticalAlign=middle;resizable=0;points=[];autosize=1;strokeColor=none;fillColor=none;" vertex="1" parent="1">
          <mxGeometry x="-10" y="950" width="140" height="30" as="geometry" />
        </mxCell>
      </root>
    </mxGraphModel>
  </diagram>
</mxfile>
